<svg xmlns="http://www.w3.org/2000/svg" version="1.1" xmlns:xlink="http://www.w3.org/1999/xlink" xmlns:svgjs="http://svgjs.dev/svgjs" viewBox="0 0 5.660247046934797 5.022855923437399"><g transform="matrix(1,0,0,1,2.8475298292338302,4.26068500691923)"><rect width="5.660247046934797" height="5.660247046934797" x="-2.8475298292338302" y="-4.579380568667929" fill="#202020"></rect><g><path d=" M -2.0790141173503227 -2.5483211105994092 L -1.961284989622336 -2.8425353121950576 L -1.836617955047909 -2.792650088581504 L -1.8614698664481157 -2.7305432386298802 L -1.3621904232999924 -2.347211029281171 L -1.4405555745765568 -2.151370451331525 L -1.9109509597216907 -2.2191619808619905 L -1.524544151060467 -1.941476498575308 L -1.6021836990844704 -1.7474492593103812 L -2.2291693146832907 -1.811633860148557 L -2.2569236390937406 -1.7422736554580576 L -2.381590673668168 -1.7921588790716112 L -2.263680145127041 -2.086826415338439 L -2.139013110552614 -2.0369411917248854 L -2.1676744390287648 -1.9653143136784874 L -1.7568476313446577 -1.9182034810160289 L -2.201732269524677 -2.23769599307305 L -2.134251167036524 -2.4063364907519116 L -1.5926798954527812 -2.3284713584336894 L -1.9224205396632212 -2.5782227891134895 L -1.9543470827758955 -2.498435886985856 L -2.0790141173503227 -2.5483211105994092 M -1.1906593737908062 -2.829808161953134 L -1.18037727767582 -2.818603496799248 Q -1.1628607887336542 -2.8042920019125868 -1.1425344871619452 -2.7988254866577447 Q -1.1222081855902362 -2.7933589714029026 -1.1014113965938217 -2.794973738970996 Q -1.0806146075974072 -2.796588506539089 -1.0600791372115703 -2.8050385764949666 Q -1.0395436668257334 -2.813488646450844 -1.0219987277894513 -2.826716372517474 Q -1.0044537887531693 -2.8399440985841045 -0.9902800656953257 -2.8539934334818393 Q -0.9761063426374821 -2.868042768379574 -0.964083136287577 -2.8829167797434994 Q -0.9520599299376717 -2.8977907911074245 -0.9416983470604878 -2.913246566137474 Q -0.9313367641833038 -2.928702341167523 -0.9210262179742013 -2.9450368969669287 L -0.8178789482486407 -2.897444393964517 Q -0.8298143063094413 -2.867043210585233 -0.8411322022114627 -2.8435283662618143 Q -0.8524500981134839 -2.8200135219383955 -0.8664615082618276 -2.7996657469210895 Q -0.8804729184101711 -2.7793179719037835 -0.8993222242426047 -2.7605205441177803 Q -0.9181715300750382 -2.741723116331777 -0.9462434325330895 -2.720558754625169 Q -0.9988782496419358 -2.6808755764252785 -1.0528971920591508 -2.66736087753902 Q -1.1069161344763656 -2.653846178652762 -1.1571332527465448 -2.662460244274837 Q -1.207350371016724 -2.6710743098969125 -1.2519539992979876 -2.699819733323627 Q -1.296557627579251 -2.7285651567503413 -1.3300678669480475 -2.773012335642256 Q -1.363578106316844 -2.8174595145341703 -1.3775724955330635 -2.8680592719399507 Q -1.3915668847492828 -2.9186590293457306 -1.3853942176682081 -2.9688700123457394 Q -1.3792215505871335 -3.0190809953457483 -1.3528726243035085 -3.065241106128485 Q -1.3265236980198838 -3.1114012169112213 -1.2789574188548523 -3.1472630520251967 Q -1.2313911396898207 -3.1831248871391717 -1.1826418142536612 -3.195112666746441 Q -1.1338924888175015 -3.207100446353711 -1.0875324121258927 -3.198330203092306 Q -1.041172335434284 -3.1895599598309015 -0.9991601480631798 -3.1622240441715865 Q -0.9571479606920755 -3.134888128512272 -0.9233499071253022 -3.0924924606272177 Q -0.9148315078192 -3.0836271206781696 -0.9074348020825205 -3.074221850825823 Q -0.9000380963458409 -3.064816580973477 -0.8931751852422893 -3.0540916061495524 L -1.1906593737908062 -2.829808161953134 M -1.2085891520911347 -3.0474395727451173 Q -1.2304228540029525 -3.0309784025288664 -1.2418550937814778 -3.014103916826162 Q -1.253287333560003 -2.9972294311234573 -1.2569064844803097 -2.980130438431199 Q -1.2605256354006167 -2.96303144573894 -1.2579453519024302 -2.9466316282243943 Q -1.2553650684042437 -2.930231810709849 -1.249173723762638 -2.914719976869916 L -1.08035242148019 -3.042000096577713 Q -1.0930759161361767 -3.053198626461428 -1.1069629381244117 -3.061073909399701 Q -1.1208499601126467 -3.068949192337974 -1.1365782111652463 -3.071155767855796 Q -1.1523064622178458 -3.073362343373618 -1.1701157874997907 -3.068190618965272 Q -1.1879251127817358 -3.063018894556926 -1.2085891520911347 -3.0474395727451173 M -0.9447236882223748 -3.615357547626279 L -0.7299565768748245 -3.6919836357497737 L -0.5196040180433035 -3.102408824727162 L -0.44602213835249394 -3.1286618741913146 L -0.40106379114513296 -3.0026529052208035 L -0.6894127821834929 -2.8997737676331563 L -0.7343711293908538 -3.0257827366036674 L -0.6607892497000443 -3.05203578606782 L -0.8261834613242044 -3.51560162811992 L -0.8997653410150139 -3.4893485786557674 L -0.9447236882223748 -3.615357547626279 M 0.05199754528875644 -3.3817679216149314 Q 0.029955714360254182 -3.407267376878491 0.003556598572209968 -3.4196410798307717 Q -0.022842517215834135 -3.4320147827830523 -0.057891470299598624 -3.4286461778700055 Q -0.08626749325791483 -3.4294561892479445 -0.10904837396019698 -3.4187636299113353 Q -0.13182925466247913 -3.4080710705747257 -0.1479527339408476 -3.38982821969414 Q -0.16407621321921606 -3.3715853688135544 -0.17237178371776757 -3.3470611411885542 Q -0.18066735421631908 -3.322536913563554 -0.17944710191495994 -3.292288078835792 Q -0.178364620034722 -3.2654544351256813 -0.1676425384650151 -3.2419417277767595 Q -0.1569204568953082 -3.218429020427838 -0.13938975117263042 -3.2017881344852794 Q -0.1218590454499526 -3.1851472485427204 -0.09829090519840655 -3.176324430635613 Q -0.07472276494686048 -3.1675016127285054 -0.047322510850730026 -3.166652238373103 Q -0.02447066854428881 -3.16952880606786 -0.005992181022550891 -3.177848752065967 Q 0.012486306499187083 -3.186168698064074 0.026640642958050798 -3.1987123112877986 Q 0.040794979416914456 -3.2112559245115233 0.05068420927909867 -3.226559551667587 Q 0.06057343914128288 -3.2418631788236505 0.06589665211864487 -3.255272236327939 L 0.2015606638128017 -3.2236054289660663 Q 0.19444751780811775 -3.193997777792053 0.17547961068531515 -3.1614685079886513 Q 0.15651170356251265 -3.1289392381852497 0.12512034854197335 -3.101528602121127 Q 0.09372899352143416 -3.074117966057004 0.049776420182037207 -3.05524115474981 Q 0.005823846842640201 -3.036364343442616 -0.05125863159523242 -3.0340616092610193 Q -0.1093168788952909 -3.031719512101959 -0.1589614667644083 -3.0509743359813415 Q -0.20860605463352572 -3.070229159860724 -0.24520984532708645 -3.1054034250040186 Q -0.28181363602064724 -3.140577690147313 -0.3035607858418023 -3.189056917394069 Q -0.3253079356629574 -3.237536144640825 -0.32759098835582284 -3.2941307386476044 Q -0.32985435955995673 -3.3502374482232913 -0.3115457823096627 -3.3991108464683064 Q -0.2932372050593686 -3.447984244713321 -0.25906823101135734 -3.485280499076058 Q -0.22489925696334612 -3.522576753438795 -0.1766738126765023 -3.5445580047311305 Q -0.12844836838965856 -3.5665392560234666 -0.07079927956576659 -3.566910133969423 Q -0.029895713308887018 -3.5705149167472494 0.009099830988281099 -3.560848412441908 Q 0.048095375285449216 -3.5511819081365674 0.08364051837470071 -3.5301366100062364 L 0.18072952016219335 -3.5340532262638242 L 0.18665364827040465 -3.3872000125048527 L 0.05199754528875644 -3.3817679216149314 M 0.35199109518641564 -3.2879443130078867 Q 0.3700314591268261 -3.3400875014934925 0.40475594371098944 -3.3792248531617943 Q 0.4394804282951528 -3.418362204830096 0.48497989458753854 -3.4408546772219974 Q 0.5304793608799241 -3.463347149613899 0.5839501368665065 -3.4670646748077005 Q 0.637420912853089 -3.4707822000015023 0.693255654505817 -3.451464642153806 Q 0.7490903961585451 -3.43214708430611 0.7890620597147515 -3.3961005883341393 Q 0.8290337232709579 -3.3600540923621685 0.8509051022785581 -3.314252831162303 Q 0.8727764812861585 -3.268451569962438 0.8756596945920558 -3.216302805363663 Q 0.8785429078979532 -3.164154040764888 0.8605025439575427 -3.1120108522792824 Q 0.8424621800171321 -3.0598676637936766 0.8083500370325989 -3.0202601161948137 Q 0.7742378940480656 -2.9806525685959504 0.7288893252094197 -2.9578495495118986 Q 0.683540756370774 -2.935046530427847 0.6298392583112464 -2.9314088298532504 Q 0.5761377602517188 -2.927771129278654 0.5189186861613198 -2.9475676348415822 Q 0.4612381679250304 -2.967523789642921 0.42126650436882407 -3.003570285614892 Q 0.3812948408126177 -3.039616781586863 0.3598849059509077 -3.0852583935483175 Q 0.3384749710891977 -3.1309000055097718 0.3361330265483961 -3.1831198429430816 Q 0.3337910820075945 -3.235339680376391 0.35199109518641564 -3.2879443130078867 M 0.4899628948076198 -3.240209190723084 Q 0.4805435897413878 -3.2129839861155554 0.4818698353578639 -3.1869495161257704 Q 0.4831960809743399 -3.160915046135986 0.49336853142477016 -3.1387951581587648 Q 0.5035409818752004 -3.116675270181544 0.5213437057449954 -3.1001823469160503 Q 0.5391464296147905 -3.0836894236505565 0.563141525201087 -3.0753876632531996 Q 0.5875980649332737 -3.066926253617432 0.6117069337202918 -3.0686603741146055 Q 0.63581580250731 -3.0703944946117794 0.6570215539774211 -3.081658234377072 Q 0.6782273054475325 -3.092921974142364 0.6948973815207786 -3.1127301238341314 Q 0.7115674575940248 -3.132538273525898 0.7211464118986675 -3.1602249222793173 Q 0.7310446646801316 -3.188834459324517 0.7302596878287513 -3.214940002148836 Q 0.7294747109773709 -3.2410455449731552 0.7196040554344203 -3.2625443395660754 Q 0.7097333998914697 -3.284043134158995 0.6916912021640584 -3.2998438912056534 Q 0.6736490044366473 -3.3156446482523116 0.6490328154660499 -3.323644613742189 Q 0.6251973691181643 -3.332407818285436 0.6012481495695567 -3.331135141934153 Q 0.5772989300209492 -3.3298624655828695 0.5557913836433586 -3.319219819201878 Q 0.5342838372657677 -3.3085771728208866 0.5170724924274258 -3.288697950294585 Q 0.4998611475890839 -3.2688187277682834 0.4899628948076198 -3.240209190723084 M 1.2697813830647802 -3.1957056863757582 L 1.4215642285902237 -3.0209804721609177 L 1.3883885550051274 -2.992160944529504 Q 1.4276819896856872 -2.9849004200823477 1.4643579054419755 -2.965017441661622 Q 1.501033821198264 -2.9451344632408967 1.5282522639612655 -2.91380188263275 Q 1.566037866855785 -2.870304888376735 1.5777985294232622 -2.825867612658465 Q 1.5895591919907393 -2.7814303369401947 1.5735970261193464 -2.7365182015984755 Q 1.5978030742802931 -2.7362018159768544 1.6223349458475051 -2.7306707619654835 Q 1.6468668174147174 -2.725139707954112 1.670210933574063 -2.7150195158786374 Q 1.6935550497334084 -2.704899323803163 1.714653956320425 -2.6899181783116095 Q 1.7357528629074415 -2.6749370328200563 1.7530445794862894 -2.6550316286689983 Q 1.8138858044859398 -2.5849940955449062 1.807842983285596 -2.5137722165784817 Q 1.801800162085252 -2.4425503376120568 1.7273392058164803 -2.377866508928218 L 1.5905817069268053 -2.2590660116920587 L 1.6376536020581138 -2.2048790781697343 L 1.536652106921265 -2.117139627380765 L 1.3851894783695038 -2.2914962230002156 L 1.6041489240311395 -2.481705105367544 Q 1.636587360425456 -2.5098841990515925 1.6404484178924061 -2.542667193825954 Q 1.6443094753593561 -2.575450188600316 1.6183719004910841 -2.6053082948269024 Q 1.6004397499648715 -2.6259509361687403 1.5748206169897603 -2.6357118068379606 Q 1.5492014840146489 -2.6454726775071804 1.5095506436038655 -2.642720885391934 Q 1.5058160560282583 -2.638829880086038 1.5015769421812737 -2.635147384888691 Q 1.497337828334289 -2.631464889691344 1.4929144051896097 -2.6276222860071554 L 1.3661096083754636 -2.51746764706042 L 1.4141421544278194 -2.462174857751926 L 1.3131406592909705 -2.3744354069629567 L 1.1616780307392092 -2.5487920025824073 L 1.381374713591625 -2.7396413188971 Q 1.3968566945980032 -2.7530904317917595 1.4052269061833909 -2.7687698506370295 Q 1.4135971177687787 -2.7844492694822995 1.4150789736634433 -2.800612704544646 Q 1.4165608295581078 -2.8167761396069917 1.4114503459248775 -2.8327105545064875 Q 1.4063398622916474 -2.848644969405983 1.3945402358871073 -2.862972693004484 Q 1.3788980057983786 -2.8817238397476643 1.3532881700124029 -2.8940799442063327 Q 1.327678334226427 -2.9064360486650007 1.2891333496018134 -2.904644907470802 L 1.1413172928504396 -2.7762379010241713 L 1.1944733104817131 -2.715047214189438 L 1.0934718153448642 -2.6273077634004687 L 0.8872520842934176 -2.8646981388316024 L 0.9882535794302665 -2.9524375896205717 L 1.0375669933773515 -2.895670325930518 L 1.2174528679276517 -3.051936209087515 L 1.1687798879279314 -3.1079662355867885 L 1.2697813830647802 -3.1957056863757582 M 1.7589801411834014 -1.929913013525285 L 1.7444441722444146 -1.9254440507000505 Q 1.7239939069837191 -1.9157779800651369 1.710322667767652 -1.89977365118472 Q 1.6966514285515846 -1.8837693223043033 1.6891720198702573 -1.8642969738933375 Q 1.6816926111889299 -1.844824625482372 1.6804974207244499 -1.8226507501787534 Q 1.6793022302599698 -1.800476874875135 1.6837061965841338 -1.778950084512977 Q 1.6881101629082977 -1.757423294150819 1.69470478475542 -1.7385874453756083 Q 1.7012994066025424 -1.7197515966003971 1.7095628561305143 -1.702503144296343 Q 1.717826305658486 -1.6852546919922886 1.7273291427073054 -1.6692565836814968 Q 1.736831979756125 -1.6532584753707047 1.7471502424019976 -1.636928792818226 L 1.6598490039890124 -1.5642452364562045 Q 1.637527587474504 -1.5880871971072548 1.6211588149351563 -1.6084122052685987 Q 1.6047900423958084 -1.6287372134299427 1.5924385084101553 -1.6501332684565417 Q 1.580086974424502 -1.6715293234831408 1.5712144164418123 -1.6966274775303696 Q 1.5623418584591227 -1.7217256315775984 1.5552955123404604 -1.7561684961570512 Q 1.5420836133679685 -1.8207488672435248 1.5530952957474977 -1.875333078120233 Q 1.564106978127027 -1.9299172889969414 1.593465922023611 -1.971558776808736 Q 1.622824865920195 -2.0132002646205303 1.667948952137616 -2.0411215802571 Q 1.7130730383550374 -2.06904289589367 1.7676075739391708 -2.080199610581552 Q 1.8221421095233041 -2.091356325269434 1.8738451252126433 -2.0822471788941264 Q 1.9255481409019826 -2.0731380325188185 1.968233284397995 -2.045986178853815 Q 2.0109184278940075 -2.0188343251888115 2.041275063849323 -1.9752052477604396 Q 2.0716316998046382 -1.9315761703320675 2.083571341839038 -1.8732146497946618 Q 2.095510983873438 -1.8148531292572558 2.08538520182824 -1.7656832998049767 Q 2.075259419783042 -1.7165134703526976 2.047417026453628 -1.6784218044478534 Q 2.019574633124214 -1.6403301385430096 1.9768369342663807 -1.6141430182550685 Q 1.9340992354085476 -1.5879558979671273 1.8812934169368356 -1.5756576616767126 Q 1.8696276867128034 -1.5717758943613664 1.8579564782525635 -1.5691389928030754 Q 1.846285269792324 -1.5665020912447845 1.8336518368575587 -1.564914323606919 L 1.7589801411834014 -1.929913013525285 M 1.963195134702754 -1.8525751551692458 Q 1.9577146432771277 -1.8793640498421533 1.9473909023950475 -1.8969385981516873 Q 1.9370671615129673 -1.914513146461221 1.923183013418231 -1.925129371598119 Q 1.9092988653234948 -1.9357455967350172 1.8933818170556866 -1.9404635890921196 Q 1.8774647687878787 -1.945181581449222 1.8607976625907967 -1.9462573642172667 L 1.9031736052210853 -1.7391218036213918 Q 1.9187532298442902 -1.7457978566782069 1.9318321664809703 -1.7549526847767174 Q 1.9449111031176505 -1.7641075128752277 1.9536627687370696 -1.7773610107371256 Q 1.9624144343564887 -1.7906145085990235 1.9653982313649623 -1.8089179442264194 Q 1.968382028373436 -1.8272213798538153 1.963195134702754 -1.8525751551692458" fill="#ffffff" fill-rule="nonzero"></path></g><g><path d=" M -1.112060546875 0.27669270833333337 L -1.0837809244791667 0.27669270833333337 L -1.0837809244791667 0.03662109375 L -1.1541748046875 0.03662109375 L -1.1541748046875 0.08463541666666669 L -1.1958821614583333 0.08463541666666669 L -1.1958821614583333 0.003255208333333315 L -0.9208170572916666 0.003255208333333315 L -0.9208170572916666 0.08463541666666669 L -0.9625244140625 0.08463541666666669 L -0.9625244140625 0.03662109375 L -1.0439046223958333 0.03662109375 L -1.0439046223958333 0.27669270833333337 L -1.0121663411458333 0.27669270833333337 L -1.0121663411458333 0.3116861979166667 L -1.112060546875 0.3116861979166667 L -1.112060546875 0.27669270833333337 M -0.8917236328125 0.10091145833333334 L -0.8229573567708333 0.10091145833333334 L -0.8229573567708333 0.27669270833333337 L -0.7912190755208333 0.27669270833333337 L -0.7912190755208333 0.3116861979166667 L -0.8913167317708333 0.3116861979166667 L -0.8913167317708333 0.27669270833333337 L -0.8612060546875 0.27669270833333337 L -0.8612060546875 0.13590494791666669 L -0.8917236328125 0.13590494791666669 L -0.8917236328125 0.10091145833333334 M -0.8683268229166666 0.0262451171875 Q -0.8683268229166666 0.020955403645833315 -0.8661905924479166 0.01617431640625 Q -0.8640543619791666 0.011393229166666685 -0.8604939778645833 0.007832845052083315 Q -0.85693359375 0.0042724609375 -0.85205078125 0.00213623046875 Q -0.84716796875 0 -0.8416748046875 0 Q -0.8363850911458333 0 -0.83160400390625 0.00213623046875 Q -0.8268229166666666 0.0042724609375 -0.8232625325520833 0.007832845052083315 Q -0.8197021484375 0.011393229166666685 -0.81756591796875 0.01617431640625 Q -0.8154296875 0.020955403645833315 -0.8154296875 0.0262451171875 Q -0.8154296875 0.03173828125 -0.81756591796875 0.03662109375 Q -0.8197021484375 0.04150390625 -0.8232625325520833 0.045267740885416685 Q -0.8268229166666666 0.049031575520833315 -0.83160400390625 0.051167805989583315 Q -0.8363850911458333 0.053304036458333315 -0.8416748046875 0.053304036458333315 Q -0.84716796875 0.053304036458333315 -0.85205078125 0.051167805989583315 Q -0.85693359375 0.049031575520833315 -0.8604939778645833 0.045267740885416685 Q -0.8640543619791666 0.04150390625 -0.8661905924479166 0.03662109375 Q -0.8683268229166666 0.03173828125 -0.8683268229166666 0.0262451171875 M -0.6022135416666665 0.15706380208333334 Q -0.6107584635416665 0.14180501302083334 -0.6238810221354165 0.13468424479166669 Q -0.6370035807291665 0.1275634765625 -0.6542968749999999 0.1275634765625 Q -0.6675211588541666 0.1275634765625 -0.6791178385416666 0.133056640625 Q -0.6907145182291666 0.1385498046875 -0.6993611653645833 0.14872233072916669 Q -0.7080078124999999 0.15889485677083334 -0.7129923502604166 0.17344156901041669 Q -0.7179768880208333 0.18798828125 -0.7179768880208333 0.20589192708333334 Q -0.7179768880208333 0.22359212239583334 -0.7129923502604166 0.23783365885416669 Q -0.7080078124999999 0.2520751953125 -0.6992594401041666 0.26214599609375 Q -0.6905110677083333 0.272216796875 -0.6790161132812499 0.27760823567708337 Q -0.6675211588541666 0.2829996744791667 -0.6542968749999999 0.2829996744791667 Q -0.6347656249999999 0.2829996744791667 -0.6203206380208333 0.2735392252604167 Q -0.6058756510416665 0.2640787760416667 -0.5973307291666665 0.24576822916666669 L -0.5659993489583333 0.26123046875 Q -0.5721028645833333 0.27425130208333337 -0.5810546874999999 0.28462727864583337 Q -0.5900065104166665 0.29500325520833337 -0.6012980143229165 0.30232747395833337 Q -0.6125895182291665 0.30965169270833337 -0.6261189778645833 0.31361897786458337 Q -0.6396484374999999 0.31758626302083337 -0.6547037760416666 0.31758626302083337 Q -0.6766764322916666 0.31758626302083337 -0.6952921549479166 0.30934651692708337 Q -0.7139078776041666 0.30110677083333337 -0.7274373372395833 0.2862548828125 Q -0.7409667968749999 0.2714029947916667 -0.7484944661458333 0.2508544921875 Q -0.7560221354166666 0.23030598958333334 -0.7560221354166666 0.20589192708333334 Q -0.7560221354166666 0.18147786458333334 -0.7480875651041666 0.16092936197916669 Q -0.7401529947916666 0.140380859375 -0.7263183593749999 0.12563069661458334 Q -0.7124837239583333 0.11088053385416669 -0.6939697265624999 0.1025390625 Q -0.6754557291666666 0.09419759114583334 -0.6542968749999999 0.09419759114583334 Q -0.6343587239583333 0.09419759114583334 -0.6165568033854165 0.10111490885416669 Q -0.5987548828124999 0.1080322265625 -0.5853271484374999 0.1220703125 L -0.5639648437499999 0.1220703125 L -0.5639648437499999 0.15706380208333334 L -0.6022135416666665 0.15706380208333334 M -0.5261230468749999 0.21077473958333334 L -0.5261230468749999 0.17578125 L -0.41402180989583326 0.17578125 L -0.41402180989583326 0.21077473958333334 L -0.5261230468749999 0.21077473958333334 M -0.30110677083333326 0.27669270833333337 L -0.2728271484374999 0.27669270833333337 L -0.2728271484374999 0.03662109375 L -0.34322102864583326 0.03662109375 L -0.34322102864583326 0.08463541666666669 L -0.3849283854166666 0.08463541666666669 L -0.3849283854166666 0.003255208333333315 L -0.10986328124999989 0.003255208333333315 L -0.10986328124999989 0.08463541666666669 L -0.15157063802083326 0.08463541666666669 L -0.15157063802083326 0.03662109375 L -0.23295084635416657 0.03662109375 L -0.23295084635416657 0.27669270833333337 L -0.20121256510416657 0.27669270833333337 L -0.20121256510416657 0.3116861979166667 L -0.30110677083333326 0.3116861979166667 L -0.30110677083333326 0.27669270833333337 M 0.02390543619791677 0.2921549479166667 Q 0.011901855468750111 0.3033447265625 -0.0026448567708332316 0.3104654947916667 Q -0.017191569010416574 0.31758626302083337 -0.0357055664062499 0.31758626302083337 Q -0.05116780598958323 0.31758626302083337 -0.0640869140624999 0.31270345052083337 Q -0.07700602213541657 0.30782063802083337 -0.0863647460937499 0.29937744140625 Q -0.09572347005208323 0.2909342447916667 -0.10091145833333323 0.27974446614583337 Q -0.10609944661458325 0.2685546875 -0.10609944661458325 0.25594075520833337 Q -0.10609944661458325 0.24251302083333334 -0.10213216145833323 0.23213704427083334 Q -0.09816487630208323 0.22176106770833334 -0.0915527343749999 0.21413167317708334 Q -0.08494059244791657 0.20650227864583334 -0.07609049479166657 0.20131429036458334 Q -0.06724039713541657 0.19612630208333334 -0.05757649739583323 0.19297281901041669 Q -0.0479125976562499 0.1898193359375 -0.0378417968749999 0.18849690755208334 Q -0.027770996093749903 0.18717447916666669 -0.018615722656249903 0.18717447916666669 Q -0.003967285156249903 0.18717447916666669 0.006001790364583426 0.18809000651041669 Q 0.01597086588541677 0.18900553385416669 0.02410888671875011 0.19063313802083334 L 0.024312337239583426 0.17333984375 Q 0.024312337239583426 0.16215006510416669 0.02105712890625011 0.15391031901041669 Q 0.01780192057291677 0.14567057291666669 0.011901855468750111 0.14027913411458334 Q 0.006001790364583426 0.1348876953125 -0.002237955729166574 0.13224283854166669 Q -0.010477701822916574 0.12959798177083334 -0.02065022786458323 0.12959798177083334 Q -0.030212402343749903 0.12959798177083334 -0.03896077473958323 0.13092041015625 Q -0.047709147135416574 0.13224283854166669 -0.055338541666666574 0.13437906901041669 Q -0.06296793619791657 0.13651529947916669 -0.06937662760416657 0.13926188151041669 Q -0.07578531901041657 0.14200846354166669 -0.0802612304687499 0.14506022135416669 L -0.09267171223958323 0.11881510416666669 Q -0.0851440429687499 0.11393229166666669 -0.07619222005208323 0.10976155598958334 Q -0.06724039713541657 0.1055908203125 -0.0573730468749999 0.10264078776041669 Q -0.04750569661458323 0.09969075520833334 -0.0372314453124999 0.09796142578125 Q -0.026957194010416574 0.09623209635416669 -0.01698811848958323 0.09623209635416669 Q 0.0013224283854167684 0.09623209635416669 0.01597086588541677 0.10060628255208334 Q 0.03061930338541677 0.10498046875 0.040791829427083426 0.1141357421875 Q 0.05096435546875011 0.123291015625 0.05645751953125011 0.13743082682291669 Q 0.06195068359375011 0.15157063802083334 0.06195068359375011 0.17130533854166669 L 0.06174723307291677 0.27669270833333337 L 0.08514404296875011 0.27669270833333337 L 0.08514404296875011 0.3116861979166667 L 0.02390543619791677 0.3116861979166667 L 0.02390543619791677 0.2921549479166667 M -0.02736409505208323 0.28584798177083337 Q -0.019836425781249903 0.28584798177083337 -0.012308756510416574 0.28401692708333337 Q -0.0047810872395832316 0.28218587239583337 0.0019327799479167684 0.2790323893229167 Q 0.008646647135416768 0.27587890625 0.014343261718750111 0.2717081705729167 Q 0.020039876302083426 0.26753743489583337 0.02390543619791677 0.2630615234375 L 0.02410888671875011 0.2154541015625 L -0.019836425781249903 0.2154541015625 Q -0.030822753906249903 0.2154541015625 -0.03987630208333323 0.2178955078125 Q -0.048929850260416574 0.2203369140625 -0.0555419921874999 0.22501627604166669 Q -0.06215413411458324 0.22969563802083334 -0.06581624348958323 0.23661295572916669 Q -0.06947835286458323 0.2435302734375 -0.06947835286458323 0.2524820963541667 Q -0.06947835286458323 0.26082356770833337 -0.06642659505208323 0.26702880859375 Q -0.06337483723958323 0.2732340494791667 -0.057779947916666574 0.27740478515625 Q -0.0521850585937499 0.28157552083333337 -0.04445393880208323 0.28371175130208337 Q -0.036722819010416574 0.28584798177083337 -0.02736409505208323 0.28584798177083337 M 0.2612304687500001 0.15706380208333334 Q 0.2526855468750001 0.14180501302083334 0.2395629882812501 0.13468424479166669 Q 0.2264404296875001 0.1275634765625 0.20914713541666677 0.1275634765625 Q 0.1959228515625001 0.1275634765625 0.1843261718750001 0.133056640625 Q 0.1727294921875001 0.1385498046875 0.16408284505208343 0.14872233072916669 Q 0.15543619791666677 0.15889485677083334 0.1504516601562501 0.17344156901041669 Q 0.14546712239583343 0.18798828125 0.14546712239583343 0.20589192708333334 Q 0.14546712239583343 0.22359212239583334 0.1504516601562501 0.23783365885416669 Q 0.15543619791666677 0.2520751953125 0.1641845703125001 0.26214599609375 Q 0.17293294270833343 0.272216796875 0.18442789713541677 0.27760823567708337 Q 0.1959228515625001 0.2829996744791667 0.20914713541666677 0.2829996744791667 Q 0.22867838541666677 0.2829996744791667 0.24312337239583343 0.2735392252604167 Q 0.2575683593750001 0.2640787760416667 0.2661132812500001 0.24576822916666669 L 0.2974446614583334 0.26123046875 Q 0.2913411458333334 0.27425130208333337 0.28238932291666674 0.28462727864583337 Q 0.2734375000000001 0.29500325520833337 0.2621459960937501 0.30232747395833337 Q 0.2508544921875001 0.30965169270833337 0.23732503255208343 0.31361897786458337 Q 0.22379557291666677 0.31758626302083337 0.2087402343750001 0.31758626302083337 Q 0.1867675781250001 0.31758626302083337 0.1681518554687501 0.30934651692708337 Q 0.1495361328125001 0.30110677083333337 0.13600667317708343 0.2862548828125 Q 0.12247721354166677 0.2714029947916667 0.11494954427083343 0.2508544921875 Q 0.1074218750000001 0.23030598958333334 0.1074218750000001 0.20589192708333334 Q 0.1074218750000001 0.18147786458333334 0.1153564453125001 0.16092936197916669 Q 0.1232910156250001 0.140380859375 0.13712565104166677 0.12563069661458334 Q 0.15096028645833343 0.11088053385416669 0.16947428385416677 0.1025390625 Q 0.1879882812500001 0.09419759114583334 0.20914713541666677 0.09419759114583334 Q 0.22908528645833343 0.09419759114583334 0.2468872070312501 0.10111490885416669 Q 0.26468912760416674 0.1080322265625 0.27811686197916674 0.1220703125 L 0.29947916666666674 0.1220703125 L 0.29947916666666674 0.15706380208333334 L 0.2612304687500001 0.15706380208333334 M 0.33732096354166674 0.21077473958333334 L 0.33732096354166674 0.17578125 L 0.4494222005208334 0.17578125 L 0.4494222005208334 0.21077473958333334 L 0.33732096354166674 0.21077473958333334 M 0.5623372395833335 0.27669270833333337 L 0.5906168619791667 0.27669270833333337 L 0.5906168619791667 0.03662109375 L 0.5202229817708335 0.03662109375 L 0.5202229817708335 0.08463541666666669 L 0.4785156250000001 0.08463541666666669 L 0.4785156250000001 0.003255208333333315 L 0.7535807291666667 0.003255208333333315 L 0.7535807291666667 0.08463541666666669 L 0.7118733723958335 0.08463541666666669 L 0.7118733723958335 0.03662109375 L 0.6304931640625001 0.03662109375 L 0.6304931640625001 0.27669270833333337 L 0.6622314453125001 0.27669270833333337 L 0.6622314453125001 0.3116861979166667 L 0.5623372395833335 0.3116861979166667 L 0.5623372395833335 0.27669270833333337 M 0.7564290364583334 0.206298828125 Q 0.7566324869791667 0.1812744140625 0.7644653320312501 0.16072591145833334 Q 0.7722981770833334 0.14017740885416669 0.7863362630208334 0.12542724609375 Q 0.8003743489583334 0.11067708333333334 0.8197021484375001 0.10274251302083334 Q 0.8390299479166667 0.09480794270833334 0.8622233072916667 0.09480794270833334 Q 0.8856201171875001 0.09480794270833334 0.9050496419270835 0.10274251302083334 Q 0.9244791666666667 0.11067708333333334 0.9383138020833335 0.12522379557291669 Q 0.9521484375000001 0.1397705078125 0.9598795572916667 0.16031901041666669 Q 0.9676106770833335 0.18086751302083334 0.9676106770833335 0.20589192708333334 Q 0.9676106770833335 0.23050944010416669 0.9598795572916667 0.25115966796875 Q 0.9521484375000001 0.27180989583333337 0.9383138020833335 0.2866617838541667 Q 0.9244791666666667 0.301513671875 0.9050496419270835 0.30975341796875 Q 0.8856201171875001 0.3179931640625 0.8622233072916667 0.3179931640625 Q 0.8384195963541667 0.3179931640625 0.8190917968750001 0.3098551432291667 Q 0.7997639973958334 0.30171712239583337 0.7859293619791667 0.2869669596354167 Q 0.7720947265625001 0.272216796875 0.7643636067708334 0.25166829427083337 Q 0.7566324869791667 0.23111979166666669 0.7564290364583334 0.206298828125 M 0.7965087890625001 0.206298828125 Q 0.7965087890625001 0.22440592447916669 0.8016967773437501 0.23905436197916669 Q 0.8068847656250001 0.2537027994791667 0.8159383138020834 0.26397705078125 Q 0.8249918619791667 0.27425130208333337 0.8368937174479167 0.27984619140625 Q 0.8487955729166667 0.2854410807291667 0.8622233072916667 0.2854410807291667 Q 0.8762613932291667 0.2854410807291667 0.8883666992187501 0.2799479166666667 Q 0.9004720052083335 0.2744547526041667 0.9094238281250001 0.26418050130208337 Q 0.9183756510416667 0.25390625 0.9234619140625001 0.2392578125 Q 0.9285481770833335 0.224609375 0.9285481770833335 0.206298828125 Q 0.9285481770833335 0.18717447916666669 0.9234619140625001 0.17232259114583334 Q 0.9183756510416667 0.157470703125 0.9095255533854167 0.14750162760416669 Q 0.9006754557291667 0.13753255208333334 0.8884684244791667 0.1324462890625 Q 0.8762613932291667 0.12736002604166669 0.8622233072916667 0.12736002604166669 Q 0.8487955729166667 0.12736002604166669 0.8368937174479167 0.1324462890625 Q 0.8249918619791667 0.13753255208333334 0.8159383138020834 0.14750162760416669 Q 0.8068847656250001 0.157470703125 0.8016967773437501 0.17232259114583334 Q 0.7965087890625001 0.18717447916666669 0.7965087890625001 0.206298828125 M 1.0213216145833335 0.211181640625 Q 1.0213216145833335 0.22013346354166669 1.0226440429687502 0.22755940755208334 Q 1.0239664713541667 0.2349853515625 1.0264078776041667 0.24169921875 Q 1.0339355468750002 0.26204427083333337 1.0505167643229167 0.2723185221354167 Q 1.0670979817708335 0.2825927734375 1.0880533854166667 0.2825927734375 Q 1.1045328776041667 0.2825927734375 1.1200968424479167 0.27801513671875 Q 1.1356608072916667 0.2734375 1.1527506510416667 0.263671875 L 1.1680094401041667 0.28951009114583337 Q 1.1472574869791667 0.3037516276041667 1.1263020833333335 0.3106689453125 Q 1.1053466796875002 0.31758626302083337 1.0827636718750002 0.31758626302083337 Q 1.0614013671875002 0.31758626302083337 1.0431925455729167 0.3104654947916667 Q 1.0249837239583335 0.3033447265625 1.0118611653645835 0.289306640625 Q 0.9987386067708335 0.2752685546875 0.9913126627604169 0.2543131510416667 Q 0.9838867187500001 0.23335774739583334 0.9838867187500001 0.20548502604166669 Q 0.9838867187500001 0.18290201822916669 0.9901936848958335 0.16286214192708334 Q 0.9965006510416669 0.142822265625 1.0090128580729167 0.12786865234375 Q 1.0215250651041667 0.1129150390625 1.0400390625000002 0.10416666666666669 Q 1.0585530598958335 0.09541829427083334 1.0831705729166667 0.09541829427083334 Q 1.1069742838541667 0.09541829427083334 1.1229451497395835 0.10264078776041669 Q 1.1389160156250002 0.10986328125 1.1489868164062502 0.12176513671875 Q 1.1590576171875002 0.1336669921875 1.1642456054687502 0.14892578125 Q 1.1694335937500002 0.1641845703125 1.1714680989583335 0.1800537109375 Q 1.1724853515625002 0.18778483072916669 1.1727905273437502 0.19571940104166669 Q 1.1730957031250002 0.20365397135416669 1.1730957031250002 0.211181640625 L 1.0213216145833335 0.211181640625 M 1.0805257161458335 0.12715657552083334 Q 1.0673014322916667 0.12715657552083334 1.0574340820312502 0.13092041015625 Q 1.0475667317708335 0.13468424479166669 1.0406494140625002 0.14170328776041669 Q 1.0337320963541667 0.14872233072916669 1.0295613606770835 0.15889485677083334 Q 1.0253906250000002 0.1690673828125 1.0233561197916667 0.18168131510416669 L 1.1326090494791667 0.18168131510416669 Q 1.1317952473958335 0.16988118489583334 1.1288452148437502 0.159912109375 Q 1.1258951822916667 0.14994303385416669 1.1197916666666667 0.14261881510416669 Q 1.1136881510416667 0.13529459635416669 1.1041259765625002 0.1312255859375 Q 1.0945638020833335 0.12715657552083334 1.0805257161458335 0.12715657552083334" fill="#fbe585" fill-rule="nonzero"></path></g><g clip-path="url(&quot;#SvgjsClipPath1002&quot;)"><g clip-path="url(&quot;#SvgjsClipPath1000&quot;)"><path d=" M 0.7146754005480488 -1.250290425379806 L 0.6898009956193484 -1.2532702882044482 C 0.5574578379199292 -1.2804317378510612 0.42070448324003984 -1.3816427786900318 0.27266489811181793 -1.4595214936120544 C 0.17572251076914724 -1.5104622485993118 0.0708760372841134 -1.5529401931645856 -0.042768481190676444 -1.5572833432315014 C 0.08789232322608209 -1.6499953848304658 0.21293609062551144 -1.7503796566118845 0.33170343032504024 -1.8579068042955242 C 0.5348332294238337 -1.808947658086654 0.7257902888839641 -1.7339221618192262 0.90085722983169 -1.623607640050974 C 0.8561592874620582 -1.5364466524301912 0.7996461889927201 -1.4412996324393674 0.7491524134291584 -1.3323260489422042 Z M -0.7211789511628306 -1.26478745802169 L -0.7477742268727617 -1.3279456505899803 C -0.7978135733555649 -1.4351834639917895 -0.8552057313581727 -1.5316788719107637 -0.9007529346328279 -1.6210524076788433 C -0.38944572220954377 -1.8544576130760009 0.08162589242400975 -2.128329355631799 0.44194345552267655 -2.5011697922510243 C 0.5203764684219897 -2.4569564842410054 0.5956248771532034 -2.407317775765398 0.6671391388379434 -2.3526161807855526 C 0.32529672525205966 -1.9268980783430516 -0.09037923947139648 -1.603672357754118 -0.557033207467418 -1.3494081125844655 Z M -0.9718822602570358 -1.9564955658488095 C -0.8904873072019357 -2.2325575075807196 -0.5661664870249461 -2.484951888827909 -0.00006704691355463588 -2.7094026064370174 C 0.12094997552073317 -2.661968110675267 0.23943795747087815 -2.608318805324887 0.3549240113860551 -2.548668805675824 C 0.00881294430387869 -2.1975739180194207 -0.4429342599118704 -1.934913909341339 -0.9412790690479612 -1.7075056778787736 C -0.9780654756181684 -1.7954563291480865 -0.9953710289722776 -1.8770822215720964 -0.9718822602570358 -1.9564955658488095 Z M 0.4145957644495232 -1.9353310901367888 C 0.5307311525557309 -2.047017408784331 0.6396065055371188 -2.166015146314417 0.7405555091800665 -2.2915960397939426 C 0.8604304241773783 -2.1842762801644553 0.9374946432606651 -2.0725761221827446 0.9717481664299271 -1.9564955658488095 C 0.9952369351451683 -1.8768214835749402 0.9784528577853712 -1.797072904730455 0.9420091354399979 -1.710500440017539 C 0.7772674191796577 -1.8127991307875038 0.600315714995345 -1.885321542282232 0.4145957644495232 -1.9353310901367888 Z" fill="#facf0e" transform="matrix(1,0,0,1,0,0)" fill-rule="evenodd"></path></g><g clip-path="url(&quot;#SvgjsClipPath1000&quot;)"><path d=" M 0.17640042956175328 -1.1080615727596361 C 0.15274302063883816 -1.1196989607837173 0.14299886843219223 -1.1483110469397029 0.1546362564562732 -1.171968455862618 C 0.1662736444803542 -1.1956258647855331 0.19488573063633974 -1.2053700169921788 0.21854313955925486 -1.1937326289680978 C 0.24326210884996413 -1.1807530693221453 0.27057736153213996 -1.1734825789530592 0.2984779598302806 -1.172456408400153 C 0.3245542115769692 -1.1722986998424814 0.35018571640618756 -1.1792111737744273 0.37264674553562316 -1.1924587376105635 C 0.38749528824086166 -1.2008557896149408 0.40569568144378654 -1.2006933823473258 0.4203920130882587 -1.192032693054366 C 0.4350883447327306 -1.183372003761406 0.44404789240338916 -1.1675287971920638 0.44389568116381606 -1.150471056000099 C 0.4437434699242432 -1.133413314808135 0.43450262428296826 -1.1177325156991675 0.4196540814007753 -1.1093354640077 C 0.3824886601113603 -1.0877697123042527 0.3402087993074291 -1.0765925144383641 0.297241316758054 -1.0769741538415571 C 0.255141314531791 -1.0781569896469765 0.21384460949263084 -1.0887809431719389 0.17640042956175328 -1.1080615727596366 Z M -0.4241313254883783 -1.1082105659008683 C -0.4474214937107176 -1.1200742022639554 -0.4568403667357609 -1.1484617083768547 -0.44526151380409973 -1.1718947612801234 C -0.43368266087243856 -1.195327814183392 -0.40541207787090694 -1.205092024808184 -0.38183962234964464 -1.1937996758816525 C -0.3571674938485727 -1.1807976062451937 -0.32988611724741923 -1.1735132368139385 -0.30201654693454316 -1.1724862070283995 C -0.27593233230886505 -1.1723128679919366 -0.25029289806843 -1.1792429320277955 -0.22784776122920014 -1.1925332341811794 C -0.2049144747359255 -1.2055345232588164 -0.17578374553077558 -1.1974830485277388 -0.1627824564531387 -1.1745497620344643 C -0.14978116737550196 -1.1516164755411897 -0.15783264210657955 -1.12248574633604 -0.18076592859985396 -1.109484457258403 C -0.21791544701755683 -1.0878548419042882 -0.2602077009158743 -1.0766371265128578 -0.3031935927502767 -1.077011402126865 C -0.3453386745809216 -1.0781895405811397 -0.38667596114832936 -1.088853613276982 -0.4241313254883783 -1.1082105659008683 Z" fill="#1192dc" transform="matrix(1,0,0,1,0,0)" fill-rule="evenodd"></path></g><g clip-path="url(&quot;#SvgjsClipPath1000&quot;)"><path d=" M -0.5362784628937853 -0.21265749189704097 C -0.6127715416023494 -0.2891878188909134 -0.6399180919348393 -0.45988181114347704 -0.5585305885368007 -0.6751545512526871 C -0.5245974006211882 -0.7648707712456007 -0.4662367872005718 -0.8469063948079989 -0.38356794278793704 -0.885070987934603 C -0.3104495587282804 -0.9188626323660452 -0.1933558490339673 -0.901706072153168 -0.1419234166806439 -0.8825604535048424 C -0.09763378142764645 -0.8650655596801173 -0.05088153507943627 -0.8546016026076659 -0.0033597953347836995 -0.851547531157379 C 0.04416140653701872 -0.8546053594984966 0.09091307582467534 -0.8650691874148686 0.13520382601107517 -0.8825604535048424 C 0.18660645973615264 -0.901706072153168 0.3036852701163425 -0.9188626323660452 0.37684835211836887 -0.885070987934603 C 0.45953954550218856 -0.8469063948079989 0.5178405616663121 -0.7648707712456007 0.5517365012966166 -0.6751545512526871 C 0.6331389040087781 -0.45985946217229223 0.6060519509327812 -0.2891878188909134 0.5295216239389092 -0.21265749189704097 C 0.4105952986074414 -0.09373116656557334 0.2637625579231996 -0.43227338207316723 0.10340124001508244 -0.4836313178558749 C 0.08420728480453532 -0.4900588739244012 0.06459625518492607 -0.49516635365272244 0.044705392026693436 -0.4989180141462892 C 0.012898653170530627 -0.5043086621148127 -0.019588445211852212 -0.5043086621148127 -0.051395184068015354 -0.4989180141462892 C -0.0712860472262482 -0.49516635365272244 -0.09089707684585746 -0.4900588739244012 -0.11009103205640436 -0.4836313178558749 C -0.27047469893570597 -0.43227338207316723 -0.41735213756231737 -0.09373116656557334 -0.5362784628937853 -0.21265749189704097 Z M -0.30059366243577645 -0.5475717244156337 L -0.30059366243577645 -0.5999055652734109 L -0.24826727123506032 -0.5999055652734109 C -0.24238548250439873 -0.599922000619475 -0.2376283670843249 -0.6046991179263888 -0.23763661060814967 -0.6105809238426914 L -0.23763661060814967 -0.6695002615429289 C -0.23763463233313542 -0.672322269811469 -0.23875479473164185 -0.6750292643563003 -0.24075025640519865 -0.6770247260298561 C -0.24274571807875545 -0.6790201877034114 -0.2454527126235877 -0.680140350101917 -0.24827472089212488 -0.6801383718269012 L -0.30059366243577645 -0.6801383718269012 L -0.30059366243577645 -0.7325392595982332 C -0.3006140972465554 -0.738406040452041 -0.30536499186594035 -0.7431569350714262 -0.31123177271974833 -0.7431773698822055 L -0.37024050630472505 -0.7431773698822055 C -0.3761172323846089 -0.7431692250213409 -0.38088383202546916 -0.7384159399046175 -0.38090841521694385 -0.7325392595982332 L -0.38090841521694385 -0.6801160228557164 L -0.4332795043600297 -0.6801160228557164 C -0.4391547704368859 -0.6801160228557164 -0.44391761464400215 -0.6753531786485998 -0.44391761464400215 -0.669477912571744 L -0.44391761464400215 -0.6105585748715074 C -0.4439258521803843 -0.6046738674132097 -0.4391642046641453 -0.5998955474616894 -0.4332795043600298 -0.599883216302227 L -0.38090841521694396 -0.599883216302227 L -0.38090841521694396 -0.5475493754444489 C -0.3809002196594584 -0.5416598427241577 -0.37613003186882876 -0.5368863237968027 -0.3702405063047255 -0.5368740168751684 L -0.31123922237681056 -0.5368740168751684 C -0.305349711118878 -0.5368986407584373 -0.3005895067352137 -0.5416821631481796 -0.30059366243577645 -0.5475717244156337 Z M 0.3446658336122338 -0.5382447537745039 C 0.3660753426435409 -0.5439835130296027 0.3787805664292091 -0.5659898400447081 0.3730455261376694 -0.5874003455876422 C 0.3673104858461299 -0.6088108511305768 0.3453063660872496 -0.6215198972700997 0.3238948646786949 -0.6157885761151594 C 0.30248336327014036 -0.610057254960219 0.2897704951602248 -0.5880553431214817 0.2954980970056381 -0.5666428464933433 C 0.3012496892869244 -0.5452360763499362 0.3232492966395354 -0.5325296364668821 0.3446658336122336 -0.5382447537745039 Z M 0.28195462046763986 -0.6009485172620357 C 0.303364129498947 -0.6066872765171349 0.31606935328461494 -0.6286936035322404 0.31033431299307546 -0.6501041090751745 C 0.30459927270153575 -0.671514614618109 0.28259515294265547 -0.684223660757632 0.2611836515341007 -0.6784923396026916 C 0.2397721501255462 -0.6727610184477513 0.22705928201563108 -0.6507591066090139 0.2327868838610444 -0.6293466099808751 C 0.23853847614233048 -0.6079398398374685 0.26053808349494145 -0.5952333999544148 0.28195462046763964 -0.6009485172620361 Z M 0.4073323488144579 -0.6009485172620357 C 0.42874185784576524 -0.6066872765171349 0.4414470816314332 -0.6286936035322404 0.4357120413398937 -0.6501041090751745 C 0.429977001048354 -0.671514614618109 0.40797288128947373 -0.684223660757632 0.386561379880919 -0.6784923396026916 C 0.36514987847236446 -0.6727610184477513 0.3524370103624491 -0.6507591066090139 0.35816461220786244 -0.6293466099808751 C 0.3639162044891485 -0.6079398398374685 0.3859158118417595 -0.5952333999544148 0.4073323488144579 -0.6009485172620361 Z M 0.3446658336122336 -0.6636224821213217 C 0.36606881596408936 -0.6693648534426084 0.37876654466622217 -0.6913680386822993 0.3730296045864273 -0.7127724774851794 C 0.367292664506632 -0.7341769162880589 0.3452927020535651 -0.7468802279408828 0.3238868081778986 -0.7411487194719828 C 0.30248091430223145 -0.7354172110030825 0.28977202051668616 -0.7134204727532227 0.2954980970056381 -0.6920131251830997 C 0.30124946848375067 -0.670606665953855 0.3232509755715428 -0.6579024623914953 0.3446658336122336 -0.6636224821213221 Z" fill="#1192dc" transform="matrix(1,0,0,1,0,0)" fill-rule="evenodd"></path></g><g clip-path="url(&quot;#SvgjsClipPath1000&quot;)"><path d=" M -0.07359516211159944 -0.2942237870645581 L -0.0730364378319791 -0.2932851302747963 C -0.06588476705283797 -0.2807697064112995 -0.05412175855256318 -0.26050663920373296 -0.046962638116360256 -0.24803591328260532 L -0.046441162122048074 -0.24709725649284353 C -0.02272890369495828 -0.206004948141028 0.015815621941788094 -0.206004948141028 0.03952788036887778 -0.24709725649284353 L 0.040086604648498114 -0.24803591328260532 C 0.04724572508470104 -0.2605066392037325 0.059008733584975714 -0.2807697064112995 0.06616040436411696 -0.2932851302747963 L 0.06668188035842937 -0.2942237870645581 C 0.09039413878551905 -0.3352788471310655 0.07115167459539251 -0.3686160624817494 0.023719708084151248 -0.3686160624817494 L 0.02263205815315683 -0.3686160624817494 L -0.03067023812262959 -0.3686160624817494 C -0.07805750669150102 -0.36867565973824235 -0.09730742053868924 -0.33533099473049655 -0.07359516211159944 -0.2942237870645581 Z" fill="#1192dc" transform="matrix(1,0,0,1,0,0)" fill-rule="evenodd"></path></g></g></g><defs><clipPath id="SvgjsClipPath1002"><path d=" M -0.9826023167686858 -2.7094026064370174 h 1.9652046335373716 v 2.5219026064370174 h -1.9652046335373716 Z"></path></clipPath><clipPath id="SvgjsClipPath1000"><path d=" M -0.982602316768686 -2.7094026064370174 L 0.9826023167686858 -2.7094026064370174 L 0.9826023167686858 -0.1875 L -0.9826023167686861 -0.1875 Z"></path></clipPath></defs></svg>